<svg id="Layer_1" data-name="Layer 1" xmlns="http://www.w3.org/2000/svg" xmlns:xlink="http://www.w3.org/1999/xlink" viewBox="0 0 230 60"><defs><style>.cls-1{fill:url(#linear-gradient);}.cls-2{fill:#fff;}.cls-3{fill:none;}.cls-4{fill:#017aff;}</style><linearGradient id="linear-gradient" x1="4.12" y1="55.88" x2="55.88" y2="4.12" gradientUnits="userSpaceOnUse"><stop offset="0" stop-color="#1e275f"/><stop offset="1" stop-color="#4a599d"/></linearGradient></defs><title>opty-logo</title><rect class="cls-1" width="60" height="60" rx="14.06"/><path class="cls-2" d="M41,22H39l2.59-2.59L46,15H30c-9.55,0-16,6.72-16,15a14.68,14.68,0,0,0,3.44,9.56L19,38h2l-2.59,2.59L14,45H30c9.55,0,16-6.72,16-15a14.68,14.68,0,0,0-3.44-9.56ZM30,39c-5.89,0-10-3.7-10-9s4.11-9,10-9,10,3.7,10,9S35.89,39,30,39Z"/><ellipse class="cls-3" cx="118" cy="30" rx="10" ry="9"/><path class="cls-4" d="M155.5,15.5H139v29h6v-23h10.5A4.51,4.51,0,0,1,160,26h0a4.51,4.51,0,0,1-4.5,4.5H150v6h5.5A10.51,10.51,0,0,0,166,26h0A10.51,10.51,0,0,0,155.5,15.5Z"/><polygon class="cls-4" points="222 15.5 214.19 28.08 207 15.5 199 15.5 210.02 34.79 204 44.5 212 44.5 230 15.5 222 15.5"/><polygon class="cls-4" points="169 21.5 179.5 21.5 179.5 44.5 185.5 44.5 185.5 21.5 196 21.5 196 15.5 169 15.5 169 21.5"/><path class="cls-4" d="M129,22h-2l2.59-2.59L134,15H118c-9.55,0-16,6.72-16,15a14.68,14.68,0,0,0,3.44,9.56L107,38h2l-2.59,2.59L102,45h16c9.55,0,16-6.72,16-15a14.68,14.68,0,0,0-3.44-9.56ZM118,39c-5.89,0-10-3.7-10-9s4.11-9,10-9,10,3.7,10,9S123.89,39,118,39Z"/></svg>